Newsreader-TextExtraBoldItalic.ufo
<glyph name="parenleft" format="2">
  <advance width="574"/>
  <unicode hex="0028"/>
  <outline>
    <contour>
      <point x="274.0" y="513.0"/>
      <point x="371.0" y="917.0"/>
      <point x="822.0" y="1364.0" type="curve"/>
      <point x="762.0" y="1429.0" type="line"/>
      <point x="182.0" y="961.0"/>
      <point x="72.0" y="650.0"/>
      <point x="72.0" y="329.0" type="curve" smooth="yes"/>
      <point x="72.0" y="116.0"/>
      <point x="145.0" y="-87.0"/>
      <point x="249.0" y="-275.0" type="curve"/>
      <point x="330.0" y="-245.0" type="line"/>
      <point x="290.0" y="-92.0"/>
      <point x="274.0" y="35.0"/>
      <point x="274.0" y="153.0" type="curve" smooth="yes"/>
    </contour>
  </outline>
</glyph>
<glyph name="parenright" format="2">
  <advance width="574"/>
  <unicode hex="0029"/>
  <outline>
    <contour>
      <point x="387.0" y="641.0"/>
      <point x="290.0" y="237.0"/>
      <point x="-161.0" y="-210.0" type="curve"/>
      <point x="-101.0" y="-275.0" type="line"/>
      <point x="479.0" y="193.0"/>
      <point x="589.0" y="504.0"/>
      <point x="589.0" y="825.0" type="curve" smooth="yes"/>
      <point x="589.0" y="1038.0"/>
      <point x="516.0" y="1241.0"/>
      <point x="412.0" y="1429.0" type="curve"/>
      <point x="331.0" y="1399.0" type="line"/>
      <point x="371.0" y="1246.0"/>
      <point x="387.0" y="1119.0"/>
      <point x="387.0" y="1001.0" type="curve" smooth="yes"/>
    </contour>
  </outline>
</glyph>
<glyph name="plus" format="2">
  <advance width="1000"/>
  <unicode hex="002B"/>
  <outline>
    <contour>
      <point x="305.0" y="49.0" type="line"/>
      <point x="459.0" y="49.0" type="line"/>
      <point x="695.0" y="823.0" type="line"/>
      <point x="541.0" y="823.0" type="line"/>
    </contour>
    <contour>
      <point x="135.0" y="508.0" type="line"/>
      <point x="91.0" y="364.0" type="line"/>
      <point x="865.0" y="364.0" type="line"/>
      <point x="909.0" y="508.0" type="line"/>
    </contour>
  </outline>
</glyph>
<glyph name="period" format="2">
  <advance width="499"/>
  <unicode hex="002E"/>
  <outline>
    <contour>
      <point x="213.0" y="349.0" type="curve" smooth="yes"/>
      <point x="94.0" y="349.0"/>
      <point x="0.0" y="258.0"/>
      <point x="0.0" y="133.0" type="curve" smooth="yes"/>
      <point x="0.0" y="44.0"/>
      <point x="54.0" y="-24.0"/>
      <point x="156.0" y="-24.0" type="curve" smooth="yes"/>
      <point x="275.0" y="-24.0"/>
      <point x="369.0" y="67.0"/>
      <point x="369.0" y="192.0" type="curve" smooth="yes"/>
      <point x="369.0" y="281.0"/>
      <point x="315.0" y="349.0"/>
    </contour>
  </outline>
</glyph>
<glyph name="less" format="2">
  <advance width="1000"/>
  <unicode hex="003C"/>
  <guideline x="1084.0" y="899" angle="172.9284383282427" identifier="yWNJZjF3p8"/>
  <outline>
    <contour>
      <point x="113.0" y="363.0" type="line"/>
      <point x="1029.0" y="720.0" type="line"/>
      <point x="1084.0" y="899.0" type="line"/>
      <point x="59.0" y="492.0" type="line"/>
      <point x="25.0" y="380.0" type="line"/>
      <point x="800.0" y="-27.0" type="line"/>
      <point x="845.0" y="118.0" type="line"/>
      <point x="147.0" y="475.0" type="line"/>
    </contour>
  </outline>
</glyph>
<glyph name="greater" format="2">
  <advance width="1000"/>
  <unicode hex="003E"/>
  <outline>
    <contour>
      <point x="887.0" y="509.0" type="line"/>
      <point x="-29.0" y="152.0" type="line"/>
      <point x="-84.0" y="-27.0" type="line"/>
      <point x="941.0" y="380.0" type="line"/>
      <point x="975.0" y="492.0" type="line"/>
      <point x="200.0" y="899.0" type="line"/>
      <point x="155.0" y="754.0" type="line"/>
      <point x="853.0" y="397.0" type="line"/>
    </contour>
  </outline>
</glyph>
<glyph name="question" format="2">
  <advance width="1002"/>
  <unicode hex="003F"/>
  <outline>
    <contour>
      <point x="399.0" y="349.0" type="curve" smooth="yes"/>
      <point x="280.0" y="349.0"/>
      <point x="186.0" y="258.0"/>
      <point x="186.0" y="133.0" type="curve" smooth="yes"/>
      <point x="186.0" y="44.0"/>
      <point x="240.0" y="-24.0"/>
      <point x="342.0" y="-24.0" type="curve" smooth="yes"/>
      <point x="461.0" y="-24.0"/>
      <point x="555.0" y="67.0"/>
      <point x="555.0" y="192.0" type="curve" smooth="yes"/>
      <point x="555.0" y="281.0"/>
      <point x="501.0" y="349.0"/>
    </contour>
    <contour>
      <point x="565.0" y="1370.0" type="curve" smooth="yes"/>
      <point x="373.0" y="1370.0"/>
      <point x="292.0" y="1296.0"/>
      <point x="292.0" y="1211.0" type="curve" smooth="yes"/>
      <point x="292.0" y="1144.0"/>
      <point x="347.0" y="1095.0"/>
      <point x="405.0" y="1095.0" type="curve" smooth="yes"/>
      <point x="540.0" y="1095.0"/>
      <point x="600.0" y="1228.0"/>
      <point x="722.0" y="1228.0" type="curve" smooth="yes"/>
      <point x="811.0" y="1228.0"/>
      <point x="888.0" y="1164.0"/>
      <point x="888.0" y="1081.0" type="curve" smooth="yes"/>
      <point x="888.0" y="950.0"/>
      <point x="801.0" y="877.0"/>
      <point x="513.0" y="892.0" type="curve"/>
      <point x="431.0" y="502.0" type="line"/>
      <point x="490.0" y="502.0" type="line"/>
      <point x="663.0" y="793.0" type="line"/>
      <point x="507.0" y="612.0" type="line"/>
      <point x="905.0" y="582.0"/>
      <point x="1048.0" y="713.0"/>
      <point x="1048.0" y="964.0" type="curve" smooth="yes"/>
      <point x="1048.0" y="1181.0"/>
      <point x="892.0" y="1370.0"/>
    </contour>
  </outline>
</glyph>
<glyph name="L" format="2">
  <advance width="1255"/>
  <unicode hex="004C"/>
  <anchor x="655.0" y="1340.0" name="UCtop"/>
  <anchor x="1006.0" y="1340.0" name="right"/>
  <anchor x="526.0" y="0" name="bottom"/>
  <anchor x="1105.0" y="702.0" name="mid"/>
  <outline>
    <contour>
      <point x="807.0" y="1232.0" type="line"/>
      <point x="957.0" y="1294.0" type="line"/>
      <point x="972.0" y="1340.0" type="line"/>
      <point x="339.0" y="1340.0" type="line"/>
      <point x="325.0" y="1294.0" type="line"/>
      <point x="437.0" y="1232.0" type="line"/>
      <point x="93.0" y="108.0" type="line"/>
      <point x="-57.0" y="46.0" type="line"/>
      <point x="-71.0" y="0.0" type="line"/>
      <point x="431.0" y="0.0" type="line"/>
    </contour>
    <contour>
      <point x="800.0" y="82.0" type="line"/>
      <point x="908.0" y="128.0" type="line"/>
      <point x="241.0" y="128.0" type="line"/>
      <point x="198.0" y="0.0" type="line"/>
      <point x="841.0" y="0.0" type="line"/>
      <point x="942.0" y="-92.0" type="line"/>
      <point x="983.0" y="-92.0" type="line"/>
      <point x="1250.0" y="460.0" type="line"/>
      <point x="1196.0" y="488.0" type="line"/>
    </contour>
  </outline>
</glyph>
<glyph name="backslash" format="2">
  <advance width="747"/>
  <unicode hex="005C"/>
  <outline>
    <contour>
      <point x="572.0" y="0.0" type="line"/>
      <point x="438.0" y="1340.0" type="line"/>
      <point x="319.0" y="1340.0" type="line"/>
      <point x="452.0" y="0.0" type="line"/>
    </contour>
  </outline>
</glyph>
<glyph name="bracketright" format="2">
  <advance width="588"/>
  <unicode hex="005D"/>
  <outline>
    <contour>
      <point x="726.0" y="1399.0" type="line"/>
      <point x="327.0" y="1399.0" type="line"/>
      <point x="296.0" y="1299.0" type="line"/>
      <point x="483.0" y="1299.0" type="line"/>
      <point x="40.0" y="-150.0" type="line"/>
      <point x="-147.0" y="-150.0" type="line"/>
      <point x="-177.0" y="-250.0" type="line"/>
      <point x="222.0" y="-250.0" type="line"/>
    </contour>
  </outline>
</glyph>
<glyph name="asciicircum" format="2">
  <advance width="1000"/>
  <unicode hex="005E"/>
  <outline>
    <contour>
      <point x="713.0" y="1246.0" type="line"/>
      <point x="809.0" y="592.0" type="line"/>
      <point x="952.0" y="592.0" type="line"/>
      <point x="840.0" y="1340.0" type="line"/>
      <point x="716.0" y="1340.0" type="line"/>
      <point x="150.0" y="592.0" type="line"/>
      <point x="317.0" y="592.0" type="line"/>
      <point x="811.0" y="1246.0" type="line"/>
    </contour>
  </outline>
</glyph>
<glyph name="j" format="2">
  <advance width="649"/>
  <unicode hex="006A"/>
  <anchor x="598.0" y="1340" name="top"/>
  <anchor x="-3.0" y="-500" name="bottom"/>
  <outline>
    <contour>
      <point x="423.0" y="1242.0" type="curve" smooth="yes"/>
      <point x="423.0" y="1134.0"/>
      <point x="502.0" y="1058.0"/>
      <point x="604.0" y="1058.0" type="curve" smooth="yes"/>
      <point x="707.0" y="1058.0"/>
      <point x="786.0" y="1134.0"/>
      <point x="786.0" y="1242.0" type="curve" smooth="yes"/>
      <point x="786.0" y="1352.0"/>
      <point x="707.0" y="1426.0"/>
      <point x="604.0" y="1426.0" type="curve" smooth="yes"/>
      <point x="502.0" y="1426.0"/>
      <point x="423.0" y="1352.0"/>
    </contour>
    <contour>
      <point x="415" y="29" type="curve" smooth="yes"/>
      <point x="630" y="759" type="line" smooth="yes"/>
      <point x="660" y="860"/>
      <point x="626" y="902"/>
      <point x="498" y="902" type="curve" smooth="yes"/>
      <point x="337" y="902"/>
      <point x="170" y="812"/>
      <point x="24" y="596" type="curve"/>
      <point x="70" y="556" type="line"/>
      <point x="179" y="673"/>
      <point x="253" y="718"/>
      <point x="370" y="715" type="curve"/>
      <point x="303" y="779" type="line"/>
      <point x="8" y="-181" type="line" smooth="yes"/>
      <point x="-45" y="-355"/>
      <point x="-92" y="-417"/>
      <point x="-164" y="-417" type="curve" smooth="yes"/>
      <point x="-191.0" y="-417.0"/>
      <point x="-224.0" y="-395.0"/>
      <point x="-262" y="-332" type="curve" smooth="yes"/>
      <point x="-300" y="-269"/>
      <point x="-319.0" y="-250.0"/>
      <point x="-336" y="-250" type="curve" smooth="yes"/>
      <point x="-415" y="-250"/>
      <point x="-459" y="-298"/>
      <point x="-459" y="-365" type="curve" smooth="yes"/>
      <point x="-459" y="-463"/>
      <point x="-388" y="-530"/>
      <point x="-221" y="-530" type="curve" smooth="yes"/>
      <point x="49" y="-530"/>
      <point x="302" y="-354"/>
    </contour>
  </outline>
</glyph>
<glyph name="k" format="2">
  <advance width="1168"/>
  <unicode hex="006B"/>
  <anchor x="821.0" y="1340.0" name="UCtop"/>
  <anchor x="495.0" y="0" name="bottom"/>
  <outline>
    <contour>
      <point x="750.0" y="1429.0" type="line"/>
      <point x="711.0" y="1429.0" type="line"/>
      <point x="232.0" y="1354.0" type="line"/>
      <point x="215.0" y="1297.0" type="line"/>
      <point x="270.0" y="1255.0"/>
      <point x="308.0" y="1221.0"/>
      <point x="343.0" y="1174.0" type="curve"/>
      <point x="-13.0" y="0.0" type="line"/>
      <point x="315.0" y="0.0" type="line"/>
    </contour>
    <contour>
      <point x="440" y="468" type="line"/>
      <point x="578" y="53"/>
      <point x="650" y="-30"/>
      <point x="732" y="-30" type="curve" smooth="yes"/>
      <point x="863" y="-30"/>
      <point x="998" y="70"/>
      <point x="1126" y="269" type="curve"/>
      <point x="1081" y="307" type="line"/>
      <point x="990" y="202"/>
      <point x="952" y="182"/>
      <point x="918" y="182" type="curve" smooth="yes"/>
      <point x="875" y="182"/>
      <point x="831" y="234"/>
      <point x="678" y="658" type="curve"/>
      <point x="562" y="503" type="line"/>
      <point x="682" y="636"/>
      <point x="813" y="717"/>
      <point x="892" y="717" type="curve" smooth="yes"/>
      <point x="923.0" y="717.0"/>
      <point x="944.0" y="697.0"/>
      <point x="968" y="648" type="curve" smooth="yes"/>
      <point x="992" y="599"/>
      <point x="1010.0" y="584.0"/>
      <point x="1033" y="584" type="curve" smooth="yes"/>
      <point x="1127" y="584"/>
      <point x="1208" y="646"/>
      <point x="1208" y="752" type="curve" smooth="yes"/>
      <point x="1208" y="832"/>
      <point x="1150" y="902"/>
      <point x="1048" y="902" type="curve" smooth="yes"/>
      <point x="919" y="902"/>
      <point x="786" y="839"/>
      <point x="467" y="517" type="curve"/>
    </contour>
  </outline>
</glyph>
<glyph name="p" format="2">
  <advance width="1198"/>
  <unicode hex="0070"/>
  <guideline x="132.0" y="-404" angle="168.5172166476857" identifier="Y6tJxbxRea"/>
  <anchor x="730.0" y="872.0" name="top"/>
  <anchor x="103.0" y="-500" name="bottom"/>
  <outline>
    <contour>
      <point x="484.0" y="314.0" type="curve" smooth="yes"/>
      <point x="494.0" y="355.0" type="line" smooth="yes"/>
      <point x="530.0" y="502.0"/>
      <point x="651.0" y="672.0"/>
      <point x="730.0" y="672.0" type="curve" smooth="yes"/>
      <point x="786.0" y="672.0"/>
      <point x="802.0" y="631.0"/>
      <point x="802.0" y="557.0" type="curve" smooth="yes"/>
      <point x="802.0" y="317.0"/>
      <point x="652.0" y="75.0"/>
      <point x="548.0" y="75.0" type="curve" smooth="yes"/>
      <point x="495.0" y="75.0"/>
      <point x="464.0" y="109.0"/>
      <point x="464.0" y="184.0" type="curve" smooth="yes"/>
      <point x="464.0" y="219.0"/>
      <point x="471.0" y="262.0"/>
    </contour>
    <contour>
      <point x="293.0" y="89.0" type="line"/>
      <point x="334.0" y="10.0"/>
      <point x="441.0" y="-30.0"/>
      <point x="600.0" y="-30.0" type="curve" smooth="yes"/>
      <point x="942.0" y="-30.0"/>
      <point x="1172.0" y="302.0"/>
      <point x="1172.0" y="618.0" type="curve" smooth="yes"/>
      <point x="1172.0" y="795.0"/>
      <point x="1057.0" y="902.0"/>
      <point x="918.0" y="902.0" type="curve" smooth="yes"/>
      <point x="754.0" y="902.0"/>
      <point x="623.0" y="777.0"/>
      <point x="485.0" y="484.0" type="curve"/>
      <point x="516.0" y="493.0" type="line"/>
      <point x="625.0" y="880.0" type="line"/>
      <point x="544.0" y="895.0"/>
      <point x="498.0" y="901.0"/>
      <point x="417.0" y="901.0" type="curve" smooth="yes"/>
      <point x="245.0" y="901.0"/>
      <point x="115.0" y="817.0"/>
      <point x="25.0" y="540.0" type="curve"/>
      <point x="84.0" y="517.0" type="line"/>
      <point x="162.0" y="675.0"/>
      <point x="196.0" y="694.0"/>
      <point x="277.0" y="694.0" type="curve" smooth="yes"/>
      <point x="282.0" y="694.0"/>
      <point x="287.0" y="694.0"/>
      <point x="292.0" y="694.0" type="curve"/>
      <point x="-39.0" y="-404.0" type="line"/>
      <point x="-162.0" y="-459.0" type="line"/>
      <point x="-175.0" y="-500.0" type="line"/>
      <point x="406.0" y="-500.0" type="line"/>
      <point x="420.0" y="-458.0" type="line"/>
      <point x="303.0" y="-405.0" type="line"/>
      <point x="448.0" y="89.0" type="line"/>
    </contour>
  </outline>
</glyph>
<glyph name="q" format="2">
  <advance width="1105"/>
  <unicode hex="0071"/>
  <guideline x="1160.0" y="872" angle="178.74398305973406" identifier="6DBlQTGHJ2"/>
  <anchor x="698.0" y="872.0" name="top"/>
  <anchor x="551.0" y="-500" name="bottom"/>
  <outline>
    <contour>
      <point x="409.0" y="-405.0" type="line"/>
      <point x="258.0" y="-458.0" type="line"/>
      <point x="244.0" y="-500.0" type="line"/>
      <point x="824.0" y="-500.0" type="line"/>
      <point x="838.0" y="-459.0" type="line"/>
      <point x="751.0" y="-404.0" type="line"/>
      <point x="1129.0" y="872.0" type="line"/>
      <point x="867.0" y="872.0" type="line"/>
      <point x="765.0" y="761.0" type="line"/>
      <point x="645.0" y="455.0" type="line" smooth="yes"/>
      <point x="575.0" y="275.0"/>
      <point x="461.0" y="184.0"/>
      <point x="390.0" y="184.0" type="curve" smooth="yes"/>
      <point x="353.0" y="184.0"/>
      <point x="344.0" y="196.0"/>
      <point x="344.0" y="239.0" type="curve" smooth="yes"/>
      <point x="344.0" y="400.0"/>
      <point x="527.0" y="757.0"/>
      <point x="670.0" y="757.0" type="curve" smooth="yes"/>
      <point x="737.0" y="757.0"/>
      <point x="772.0" y="720.0"/>
      <point x="786.0" y="677.0" type="curve"/>
      <point x="844.0" y="756.0" type="line"/>
      <point x="774.0" y="862.0"/>
      <point x="693.0" y="898.0"/>
      <point x="591.0" y="898.0" type="curve" smooth="yes"/>
      <point x="279.0" y="898.0"/>
      <point x="1.0" y="481.0"/>
      <point x="1.0" y="183.0" type="curve" smooth="yes"/>
      <point x="1.0" y="45.0"/>
      <point x="94.0" y="-30.0"/>
      <point x="220.0" y="-30.0" type="curve" smooth="yes"/>
      <point x="365.0" y="-30.0"/>
      <point x="488.0" y="45.0"/>
      <point x="710.0" y="423.0" type="curve"/>
      <point x="660.0" y="423.0" type="line"/>
    </contour>
  </outline>
</glyph>
<glyph name="x" format="2">
  <advance width="1088"/>
  <unicode hex="0078"/>
  <anchor x="652.0" y="872.0" name="top"/>
  <anchor x="436.0" y="0" name="bottom"/>
  <outline>
    <contour>
      <point x="592" y="382" type="line"/>
      <point x="705" y="536" type="line" smooth="yes"/>
      <point x="782" y="641"/>
      <point x="858" y="691"/>
      <point x="907" y="691" type="curve" smooth="yes"/>
      <point x="938" y="691"/>
      <point x="957" y="680"/>
      <point x="979" y="648" type="curve" smooth="yes"/>
      <point x="1001" y="616"/>
      <point x="1016" y="609"/>
      <point x="1036" y="609" type="curve" smooth="yes"/>
      <point x="1112" y="609"/>
      <point x="1177" y="671"/>
      <point x="1177" y="762" type="curve" smooth="yes"/>
      <point x="1177" y="839"/>
      <point x="1122" y="902"/>
      <point x="1023" y="902" type="curve" smooth="yes"/>
      <point x="929" y="902"/>
      <point x="838" y="844"/>
      <point x="719" y="684" type="curve" smooth="yes"/>
      <point x="569" y="482" type="line"/>
      <point x="497" y="505" type="line"/>
      <point x="377" y="339" type="line" smooth="yes"/>
      <point x="291" y="219"/>
      <point x="232" y="181"/>
      <point x="191" y="181" type="curve" smooth="yes"/>
      <point x="162.0" y="181.0"/>
      <point x="142" y="192"/>
      <point x="120" y="222" type="curve" smooth="yes"/>
      <point x="98" y="252"/>
      <point x="86.0" y="263.0"/>
      <point x="62" y="263" type="curve" smooth="yes"/>
      <point x="-12" y="263"/>
      <point x="-79" y="203"/>
      <point x="-79" y="110" type="curve" smooth="yes"/>
      <point x="-79" y="33"/>
      <point x="-24" y="-30"/>
      <point x="75" y="-30" type="curve" smooth="yes"/>
      <point x="169" y="-30"/>
      <point x="253" y="17"/>
      <point x="367" y="180" type="curve" smooth="yes"/>
      <point x="529" y="410" type="line"/>
    </contour>
    <contour>
      <point x="1047.0" y="349.0" type="curve"/>
      <point x="973.0" y="349.0" type="line"/>
      <point x="904.0" y="212.0"/>
      <point x="846.0" y="166.0"/>
      <point x="782.0" y="166.0" type="curve" smooth="yes"/>
      <point x="771.0" y="166.0"/>
      <point x="769.0" y="168.0"/>
      <point x="760.0" y="211.0" type="curve" smooth="yes"/>
      <point x="640.0" y="777.0" type="line" smooth="yes"/>
      <point x="622.0" y="863.0"/>
      <point x="583" y="902"/>
      <point x="487.0" y="902.0" type="curve" smooth="yes"/>
      <point x="307.0" y="902.0"/>
      <point x="172.0" y="807.0"/>
      <point x="90.0" y="523.0" type="curve"/>
      <point x="172.0" y="523.0" type="line"/>
      <point x="217.0" y="654.0"/>
      <point x="267.0" y="694.0"/>
      <point x="313.0" y="694.0" type="curve" smooth="yes"/>
      <point x="325" y="694"/>
      <point x="328.0" y="691.0"/>
      <point x="337.0" y="651.0" type="curve" smooth="yes"/>
      <point x="457.0" y="95.0" type="line" smooth="yes"/>
      <point x="476.0" y="9.0"/>
      <point x="514" y="-30"/>
      <point x="610.0" y="-30.0" type="curve" smooth="yes"/>
      <point x="814.0" y="-30.0"/>
      <point x="950.0" y="62.0"/>
    </contour>
  </outline>
</glyph>
<glyph name="braceleft" format="2">
  <advance width="585"/>
  <unicode hex="007B"/>
  <outline>
    <contour>
      <point x="66.0" y="529.0" type="line"/>
      <point x="116.0" y="526.0" type="line" smooth="yes"/>
      <point x="173.0" y="523.0"/>
      <point x="198.0" y="500.0"/>
      <point x="198.0" y="454.0" type="curve" smooth="yes"/>
      <point x="198.0" y="326.0"/>
      <point x="25.0" y="109.62522731597343"/>
      <point x="25.0" y="-46.0" type="curve" smooth="yes"/>
      <point x="25.0" y="-154.0"/>
      <point x="90.0" y="-253.0"/>
      <point x="225.0" y="-270.0" type="curve" smooth="yes"/>
      <point x="312.0" y="-281.0" type="line"/>
      <point x="347.0" y="-199.0" type="line"/>
      <point x="303.0" y="-192.0" type="line" smooth="yes"/>
      <point x="253.0" y="-184.0"/>
      <point x="232.0" y="-153.0"/>
      <point x="232.0" y="-95.0" type="curve" smooth="yes"/>
      <point x="232.0" y="53.0"/>
      <point x="367.0" y="284.0"/>
      <point x="367.0" y="432.0" type="curve" smooth="yes"/>
      <point x="367.0" y="508.0"/>
      <point x="335.0" y="561.0"/>
      <point x="248.0" y="580.0" type="curve"/>
      <point x="244.0" y="568.0" type="line"/>
      <point x="372.0" y="588.0"/>
      <point x="449.0" y="650.0"/>
      <point x="491.0" y="785.0" type="curve" smooth="yes"/>
      <point x="532.0" y="920.0"/>
      <point x="560.0" y="1070.0"/>
      <point x="591.0" y="1173.0" type="curve" smooth="yes"/>
      <point x="623.0" y="1276.0"/>
      <point x="676.0" y="1329.0"/>
      <point x="770.0" y="1335.0" type="curve" smooth="yes"/>
      <point x="817.0" y="1338.0" type="line"/>
      <point x="835.0" y="1429.0" type="line"/>
      <point x="742.0" y="1422.0" type="line" smooth="yes"/>
      <point x="503.0" y="1404.0"/>
      <point x="390.0" y="1306.0"/>
      <point x="351.0" y="1176.0" type="curve" smooth="yes"/>
      <point x="311.0" y="1046.0"/>
      <point x="317.0" y="834.0"/>
      <point x="291.0" y="748.0" type="curve" smooth="yes"/>
      <point x="264.0" y="662.0"/>
      <point x="231.0" y="627.0"/>
      <point x="145.0" y="622.0" type="curve" smooth="yes"/>
      <point x="93.0" y="619.0" type="line"/>
    </contour>
  </outline>
</glyph>
<glyph name="guillemotleft" format="2">
  <advance width="997"/>
  <unicode hex="00AB"/>
  <outline>
    <contour>
      <point x="309.0" y="467.0" type="line"/>
      <point x="273.0" y="349.0" type="line"/>
      <point x="630.0" y="820.0" type="line"/>
      <point x="574.0" y="872.0" type="line"/>
      <point x="59.0" y="484.0" type="line"/>
      <point x="30.0" y="388.0" type="line"/>
      <point x="318.0" y="0.0" type="line"/>
      <point x="388.0" y="34.0" type="line"/>
    </contour>
    <contour>
      <point x="737.0" y="467.0" type="line"/>
      <point x="701.0" y="349.0" type="line"/>
      <point x="1058.0" y="820.0" type="line"/>
      <point x="1002.0" y="872.0" type="line"/>
      <point x="487.0" y="484.0" type="line"/>
      <point x="458.0" y="388.0" type="line"/>
      <point x="746.0" y="0.0" type="line"/>
      <point x="816.0" y="34.0" type="line"/>
    </contour>
  </outline>
</glyph>
<glyph name="paragraph" format="2">
  <advance width="1267"/>
  <unicode hex="00B6"/>
  <outline>
    <contour>
      <point x="545.0" y="-250.0" type="line"/>
      <point x="994.0" y="1221.0" type="line"/>
      <point x="1166.0" y="1221.0" type="line"/>
      <point x="1203.0" y="1340.0" type="line"/>
      <point x="902.0" y="1340.0" type="line"/>
      <point x="415.0" y="-250.0" type="line"/>
    </contour>
    <contour>
      <point x="823.0" y="-250.0" type="line"/>
      <point x="1276.0" y="1230.0" type="line"/>
      <point x="1462.0" y="1286.0" type="line"/>
      <point x="1478.0" y="1340.0" type="line"/>
      <point x="1180.0" y="1340.0" type="line"/>
      <point x="694.0" y="-250.0" type="line"/>
    </contour>
    <contour>
      <point x="960.0" y="1340.0" type="line"/>
      <point x="729.0" y="1340.0" type="line" smooth="yes"/>
      <point x="360.0" y="1340.0"/>
      <point x="200.0" y="1093.9008986838373"/>
      <point x="200.0" y="853.0" type="curve" smooth="yes"/>
      <point x="200.0" y="707.0"/>
      <point x="285.0" y="597.0"/>
      <point x="518.0" y="597.0" type="curve" smooth="yes"/>
      <point x="733.0" y="597.0" type="line"/>
    </contour>
  </outline>
</glyph>
<glyph name="questiondown" format="2">
  <advance width="1024"/>
  <unicode hex="00BF"/>
  <outline>
    <contour>
      <point x="644.0" y="513.0" type="curve" smooth="yes"/>
      <point x="763.0" y="513.0"/>
      <point x="857.0" y="604.0"/>
      <point x="857.0" y="729.0" type="curve" smooth="yes"/>
      <point x="857.0" y="818.0"/>
      <point x="803.0" y="886.0"/>
      <point x="701.0" y="886.0" type="curve" smooth="yes"/>
      <point x="582.0" y="886.0"/>
      <point x="488.0" y="795.0"/>
      <point x="488.0" y="670.0" type="curve" smooth="yes"/>
      <point x="488.0" y="581.0"/>
      <point x="542.0" y="513.0"/>
    </contour>
    <contour>
      <point x="478.0" y="-508.0" type="curve" smooth="yes"/>
      <point x="670.0" y="-508.0"/>
      <point x="751.0" y="-434.0"/>
      <point x="751.0" y="-349.0" type="curve" smooth="yes"/>
      <point x="751.0" y="-282.0"/>
      <point x="696.0" y="-233.0"/>
      <point x="638.0" y="-233.0" type="curve" smooth="yes"/>
      <point x="503.0" y="-233.0"/>
      <point x="443.0" y="-366.0"/>
      <point x="321.0" y="-366.0" type="curve" smooth="yes"/>
      <point x="232.0" y="-366.0"/>
      <point x="155.0" y="-302.0"/>
      <point x="155.0" y="-219.0" type="curve" smooth="yes"/>
      <point x="155.0" y="-88.0"/>
      <point x="242.0" y="-15.0"/>
      <point x="530.0" y="-30.0" type="curve"/>
      <point x="612.0" y="360.0" type="line"/>
      <point x="553.0" y="360.0" type="line"/>
      <point x="380.0" y="69.0" type="line"/>
      <point x="536.0" y="250.0" type="line"/>
      <point x="138.0" y="280.0"/>
      <point x="-5.0" y="149.0"/>
      <point x="-5.0" y="-102.0" type="curve" smooth="yes"/>
      <point x="-5.0" y="-319.0"/>
      <point x="151.0" y="-508.0"/>
    </contour>
  </outline>
</glyph>
<glyph name="multiply" format="2">
  <advance width="1000"/>
  <unicode hex="00D7"/>
  <outline>
    <contour>
      <point x="66.0" y="190.0" type="line"/>
      <point x="140.0" y="82.0" type="line"/>
      <point x="936.0" y="682.0" type="line"/>
      <point x="862.0" y="790.0" type="line"/>
    </contour>
    <contour>
      <point x="228.0" y="693.0" type="line"/>
      <point x="646.0" y="82.0" type="line"/>
      <point x="774.0" y="179.0" type="line"/>
      <point x="356.0" y="790.0" type="line"/>
    </contour>
  </outline>
</glyph>
<glyph name="ae" format="2">
  <advance width="1558"/>
  <unicode hex="00E6"/>
  <anchor x="908.0" y="872.0" name="top"/>
  <anchor x="642.0" y="0" name="bottom"/>
  <outline>
    <contour>
      <point x="1074.0" y="757.0" type="line"/>
      <point x="1109.0" y="872.0" type="line"/>
      <point x="882.0" y="872.0" type="line"/>
      <point x="780.0" y="761.0" type="line"/>
      <point x="640.0" y="442.0" type="line" smooth="yes"/>
      <point x="568.0" y="278.0"/>
      <point x="461.0" y="184.0"/>
      <point x="390.0" y="184.0" type="curve" smooth="yes"/>
      <point x="353.0" y="184.0"/>
      <point x="344.0" y="196.0"/>
      <point x="344.0" y="239.0" type="curve" smooth="yes"/>
      <point x="344.0" y="400.0"/>
      <point x="527.0" y="757.0"/>
      <point x="670.0" y="757.0" type="curve" smooth="yes"/>
      <point x="737.0" y="757.0"/>
      <point x="772.0" y="720.0"/>
      <point x="786.0" y="677.0" type="curve"/>
      <point x="844.0" y="756.0" type="line"/>
      <point x="774.0" y="862.0"/>
      <point x="693.0" y="898.0"/>
      <point x="591.0" y="898.0" type="curve" smooth="yes"/>
      <point x="279.0" y="898.0"/>
      <point x="1.0" y="481.0"/>
      <point x="1.0" y="183.0" type="curve" smooth="yes"/>
      <point x="1.0" y="45.0"/>
      <point x="94.0" y="-30.0"/>
      <point x="220.0" y="-30.0" type="curve" smooth="yes"/>
      <point x="378.0" y="-30.0"/>
      <point x="498.0" y="52.0"/>
      <point x="712.0" y="416.0" type="curve"/>
      <point x="681.0" y="416.0" type="line"/>
      <point x="662.0" y="122.0"/>
      <point x="789.0" y="-30.0"/>
      <point x="1035.0" y="-30.0" type="curve" smooth="yes"/>
      <point x="1233.0" y="-30.0"/>
      <point x="1374.0" y="45.0"/>
      <point x="1497.0" y="349.0" type="curve"/>
      <point x="1431.0" y="349.0" type="line"/>
      <point x="1351.0" y="223.0"/>
      <point x="1278.0" y="183.0"/>
      <point x="1171.0" y="183.0" type="curve" smooth="yes"/>
      <point x="1075.0" y="183.0"/>
      <point x="1014.0" y="234.0"/>
      <point x="1014.0" y="365.0" type="curve" smooth="yes"/>
      <point x="1014.0" y="569.0"/>
      <point x="1114.0" y="795.0"/>
      <point x="1227.0" y="795.0" type="curve" smooth="yes"/>
      <point x="1262.0" y="795.0"/>
      <point x="1279.0" y="771.0"/>
      <point x="1279.0" y="724.0" type="curve" smooth="yes"/>
      <point x="1279.0" y="617.0"/>
      <point x="1225.0" y="568.0"/>
      <point x="924.0" y="460.0" type="curve"/>
      <point x="921.0" y="369.0" type="line"/>
      <point x="1108.0" y="407.0"/>
      <point x="1323.0" y="464.0"/>
      <point x="1486.0" y="532.0" type="curve"/>
      <point x="1518.0" y="566.0"/>
      <point x="1554.0" y="632.0"/>
      <point x="1554.0" y="709.0" type="curve" smooth="yes"/>
      <point x="1554.0" y="819.0"/>
      <point x="1493.0" y="902.0"/>
      <point x="1343.0" y="902.0" type="curve" smooth="yes"/>
      <point x="1227.0" y="902.0"/>
      <point x="1105.0" y="851.0"/>
      <point x="1055.0" y="757.0" type="curve"/>
    </contour>
  </outline>
</glyph>
<glyph name="divide" format="2">
  <advance width="1000"/>
  <unicode hex="00F7"/>
  <outline>
    <contour>
      <point x="135.0" y="508.0" type="line"/>
      <point x="91.0" y="364.0" type="line"/>
      <point x="865.0" y="364.0" type="line"/>
      <point x="909.0" y="508.0" type="line"/>
    </contour>
    <contour>
      <point x="595.0" y="886.0" type="curve" smooth="yes"/>
      <point x="513.0" y="886.0"/>
      <point x="455.0" y="823.0"/>
      <point x="455.0" y="747.0" type="curve" smooth="yes"/>
      <point x="455.0" y="671.0"/>
      <point x="513.0" y="608.0"/>
      <point x="595.0" y="608.0" type="curve" smooth="yes"/>
      <point x="677.0" y="608.0"/>
      <point x="735.0" y="671.0"/>
      <point x="735.0" y="747.0" type="curve" smooth="yes"/>
      <point x="735.0" y="823.0"/>
      <point x="677.0" y="886.0"/>
    </contour>
    <contour>
      <point x="405.0" y="264.0" type="curve" smooth="yes"/>
      <point x="323.0" y="264.0"/>
      <point x="265.0" y="201.0"/>
      <point x="265.0" y="125.0" type="curve" smooth="yes"/>
      <point x="265.0" y="49.0"/>
      <point x="323.0" y="-14.0"/>
      <point x="405.0" y="-14.0" type="curve" smooth="yes"/>
      <point x="487.0" y="-14.0"/>
      <point x="545.0" y="49.0"/>
      <point x="545.0" y="125.0" type="curve" smooth="yes"/>
      <point x="545.0" y="201.0"/>
      <point x="487.0" y="264.0"/>
    </contour>
  </outline>
</glyph>
<glyph name="Dcroat" format="2">
  <advance width="1522"/>
  <unicode hex="0110"/>
  <guideline x="-65.0" y="0" angle="2.698142864109786" identifier="pTedZk4yai"/>
  <outline>
    <contour>
      <point x="122.0" y="614.0" type="line"/>
      <point x="853.0" y="614.0" type="line"/>
      <point x="893.0" y="744.0" type="line"/>
      <point x="162.0" y="744.0" type="line"/>
    </contour>
    <contour>
      <point x="580.0" y="128.0" type="curve" smooth="yes"/>
      <point x="314.0" y="128.0" type="line"/>
      <point x="234.0" y="0.0" type="line"/>
      <point x="564.0" y="0.0" type="line" smooth="yes"/>
      <point x="1163.0" y="0.0"/>
      <point x="1548.0" y="379.0"/>
      <point x="1548.0" y="854.0" type="curve" smooth="yes"/>
      <point x="1548.0" y="1130.0"/>
      <point x="1376.0" y="1340.0"/>
      <point x="937.0" y="1340.0" type="curve" smooth="yes"/>
      <point x="644.0" y="1340.0" type="line"/>
      <point x="639.0" y="1212.0" type="line"/>
      <point x="836.0" y="1212.0" type="line" smooth="yes"/>
      <point x="1061.0" y="1212.0"/>
      <point x="1181.0" y="1095.0"/>
      <point x="1181.0" y="894.0" type="curve" smooth="yes"/>
      <point x="1181.0" y="456.0"/>
      <point x="932.0" y="128.0"/>
    </contour>
    <contour>
      <point x="445.0" y="1243.0" type="line"/>
      <point x="96.0" y="103.0" type="line"/>
      <point x="-52.0" y="44.0" type="line"/>
      <point x="-65.0" y="0.0" type="line"/>
      <point x="435.0" y="0.0" type="line"/>
      <point x="844.0" y="1340.0" type="line"/>
      <point x="341.0" y="1340.0" type="line"/>
      <point x="328.0" y="1296.0" type="line"/>
    </contour>
  </outline>
</glyph>
<glyph name="Hbar" format="2">
  <advance width="1637"/>
  <unicode hex="0126"/>
  <outline>
    <contour>
      <point x="422.0" y="621.0" type="line"/>
      <point x="1327.0" y="621.0" type="line"/>
      <point x="1365.0" y="749.0" type="line"/>
      <point x="460.0" y="749.0" type="line"/>
    </contour>
    <contour>
      <point x="219.0" y="944.0" type="line"/>
      <point x="1729.0" y="944.0" type="line"/>
      <point x="1769.0" y="1074.0" type="line"/>
      <point x="259.0" y="1074.0" type="line"/>
    </contour>
    <contour>
      <point x="441.0" y="1243.0" type="line"/>
      <point x="92.0" y="103.0" type="line"/>
      <point x="-56.0" y="44.0" type="line"/>
      <point x="-69.0" y="0.0" type="line"/>
      <point x="564.0" y="0.0" type="line"/>
      <point x="577.0" y="44.0" type="line"/>
      <point x="460.0" y="97.0" type="line"/>
      <point x="809.0" y="1237.0" type="line"/>
      <point x="957.0" y="1296.0" type="line"/>
      <point x="970.0" y="1340.0" type="line"/>
      <point x="337.0" y="1340.0" type="line"/>
      <point x="324.0" y="1296.0" type="line"/>
    </contour>
    <contour>
      <point x="1320.0" y="1243.0" type="line"/>
      <point x="971.0" y="103.0" type="line"/>
      <point x="823.0" y="44.0" type="line"/>
      <point x="810.0" y="0.0" type="line"/>
      <point x="1443.0" y="0.0" type="line"/>
      <point x="1456.0" y="44.0" type="line"/>
      <point x="1339.0" y="97.0" type="line"/>
      <point x="1688.0" y="1237.0" type="line"/>
      <point x="1836.0" y="1296.0" type="line"/>
      <point x="1849.0" y="1340.0" type="line"/>
      <point x="1216.0" y="1340.0" type="line"/>
      <point x="1203.0" y="1296.0" type="line"/>
    </contour>
  </outline>
</glyph>
<glyph name="Lslash" format="2">
  <advance width="1273"/>
  <unicode hex="0141"/>
  <outline>
    <contour>
      <point x="825.0" y="1232.0" type="line"/>
      <point x="975.0" y="1294.0" type="line"/>
      <point x="990.0" y="1340.0" type="line"/>
      <point x="357.0" y="1340.0" type="line"/>
      <point x="343.0" y="1294.0" type="line"/>
      <point x="455.0" y="1232.0" type="line"/>
      <point x="111.0" y="108.0" type="line"/>
      <point x="-39.0" y="46.0" type="line"/>
      <point x="-53.0" y="0.0" type="line"/>
      <point x="449.0" y="0.0" type="line"/>
    </contour>
    <contour>
      <point x="818.0" y="82.0" type="line"/>
      <point x="926.0" y="128.0" type="line"/>
      <point x="259.0" y="128.0" type="line"/>
      <point x="216.0" y="0.0" type="line"/>
      <point x="859.0" y="0.0" type="line"/>
      <point x="960.0" y="-92.0" type="line"/>
      <point x="1001.0" y="-92.0" type="line"/>
      <point x="1268.0" y="460.0" type="line"/>
      <point x="1214.0" y="488.0" type="line"/>
    </contour>
    <contour>
      <point x="994.0" y="974.0" type="line"/>
      <point x="534.0" y="732.0" type="line"/>
      <point x="446.0" y="743.0" type="line"/>
      <point x="122.0" y="573.0" type="line"/>
      <point x="75.0" y="419.0" type="line"/>
      <point x="399.0" y="589.0" type="line"/>
      <point x="487.0" y="578.0" type="line"/>
      <point x="946.0" y="820.0" type="line"/>
    </contour>
  </outline>
</glyph>
<glyph name="lslash" format="2">
  <advance width="777"/>
  <unicode hex="0142"/>
  <outline>
    <contour>
      <point x="62.0" y="492.0" type="line"/>
      <point x="9.0" y="318.0" type="line"/>
      <point x="312.0" y="512.0" type="line"/>
      <point x="454.0" y="533.0" type="line"/>
      <point x="753.0" y="724.0" type="line"/>
      <point x="807.0" y="898.0" type="line"/>
      <point x="508.0" y="707.0" type="line"/>
      <point x="365.0" y="686.0" type="line"/>
    </contour>
    <contour>
      <point x="419.0" y="1180.0" type="curve"/>
      <point x="69.0" y="113.0" type="line" smooth="yes"/>
      <point x="36.0" y="13.0"/>
      <point x="73.0" y="-30.0"/>
      <point x="201.0" y="-30.0" type="curve" smooth="yes"/>
      <point x="369.0" y="-30.0"/>
      <point x="544.0" y="51.0"/>
      <point x="703.0" y="261.0" type="curve"/>
      <point x="659.0" y="303.0" type="line"/>
      <point x="542.0" y="190.0"/>
      <point x="460.0" y="152.0"/>
      <point x="339.0" y="161.0" type="curve"/>
      <point x="396.0" y="73.0" type="line"/>
      <point x="841.0" y="1429.0" type="line"/>
      <point x="802.0" y="1429.0" type="line"/>
      <point x="313.0" y="1354.0" type="line"/>
      <point x="296.0" y="1297.0" type="line"/>
      <point x="349.0" y="1257.0"/>
      <point x="386.0" y="1225.0"/>
    </contour>
  </outline>
</glyph>
<glyph name="OE" format="2">
  <advance width="2081"/>
  <unicode hex="0152"/>
  <outline>
    <contour>
      <point x="1232.0" y="1340.0" type="line"/>
      <point x="822.0" y="0.0" type="line"/>
      <point x="1192.0" y="0.0" type="line"/>
      <point x="1601.0" y="1340.0" type="line"/>
    </contour>
    <contour>
      <point x="1102.0" y="1340.0" type="line" smooth="yes"/>
      <point x="503.0" y="1340.0"/>
      <point x="118.0" y="961.0"/>
      <point x="118.0" y="486.0" type="curve" smooth="yes"/>
      <point x="118.0" y="210.0"/>
      <point x="290.0" y="0.0"/>
      <point x="729.0" y="0.0" type="curve" smooth="yes"/>
      <point x="1653.0" y="0.0" type="line"/>
      <point x="1759.0" y="-81.0" type="line"/>
      <point x="1800.0" y="-81.0" type="line"/>
      <point x="2052.0" y="430.0" type="line"/>
      <point x="1998.0" y="458.0" type="line"/>
      <point x="1612.0" y="82.0" type="line"/>
      <point x="1720.0" y="128.0" type="line"/>
      <point x="830.0" y="128.0" type="line" smooth="yes"/>
      <point x="605.0" y="128.0"/>
      <point x="485.0" y="245.0"/>
      <point x="485.0" y="446.0" type="curve" smooth="yes"/>
      <point x="485.0" y="884.0"/>
      <point x="734.0" y="1212.0"/>
      <point x="1086.0" y="1212.0" type="curve" smooth="yes"/>
      <point x="2026.0" y="1212.0" type="line"/>
      <point x="1982.0" y="1262.0" type="line"/>
      <point x="2078.0" y="935.0" type="line"/>
      <point x="2143.0" y="935.0" type="line"/>
      <point x="2202.0" y="1416.0" type="line"/>
      <point x="2166.0" y="1416.0" type="line"/>
      <point x="2012.0" y="1340.0" type="line"/>
    </contour>
    <contour>
      <point x="1716.0" y="441.0" type="line"/>
      <point x="1796.0" y="703.0" type="line"/>
      <point x="1876.0" y="965.0" type="line"/>
      <point x="1771.0" y="965.0" type="line"/>
      <point x="1689.0" y="767.0" type="line"/>
      <point x="1244.0" y="767.0" type="line"/>
      <point x="1206.0" y="639.0" type="line"/>
      <point x="1651.0" y="639.0" type="line"/>
      <point x="1611.0" y="441.0" type="line"/>
    </contour>
  </outline>
</glyph>
<glyph name="uni0163" format="2">
  <advance width="769"/>
  <unicode hex="0163"/>
  <outline>
    <contour>
      <point x="97.0" y="763.0" type="line"/>
      <point x="840.0" y="763.0" type="line"/>
      <point x="861.0" y="872.0" type="line"/>
      <point x="117.0" y="872.0" type="line"/>
    </contour>
    <contour>
      <point x="511.0" y="427.0" type="curve" smooth="yes"/>
      <point x="735.0" y="1110.0" type="line"/>
      <point x="396.0" y="1110.0" type="line"/>
      <point x="169.0" y="404.0" type="line" smooth="yes"/>
      <point x="134.0" y="294.0"/>
      <point x="117.0" y="204.0"/>
      <point x="117.0" y="151.0" type="curve" smooth="yes"/>
      <point x="117.0" y="12.0"/>
      <point x="179.0" y="-30.0"/>
      <point x="272.0" y="-30.0" type="curve" smooth="yes"/>
      <point x="409.0" y="-30.0"/>
      <point x="564.0" y="40.0"/>
      <point x="736.0" y="317.0" type="curve"/>
      <point x="682.0" y="359.0" type="line"/>
      <point x="586.0" y="240.0"/>
      <point x="535.0" y="201.0"/>
      <point x="499.0" y="201.0" type="curve" smooth="yes"/>
      <point x="478.0" y="201.0"/>
      <point x="465.0" y="210.0"/>
      <point x="465.0" y="238.0" type="curve" smooth="yes"/>
      <point x="465.0" y="263.0"/>
      <point x="468.0" y="297.0"/>
    </contour>
    <contour>
      <point x="145.0" y="-530.0" type="curve" smooth="yes"/>
      <point x="327.0" y="-530.0"/>
      <point x="442.0" y="-405.0"/>
      <point x="442.0" y="-282.0" type="curve" smooth="yes"/>
      <point x="442.0" y="-204.0"/>
      <point x="387.0" y="-136.0"/>
      <point x="224.0" y="-94.0" type="curve"/>
      <point x="194.0" y="-225.0" type="line"/>
      <point x="438.0" y="49.0" type="line"/>
      <point x="344.0" y="49.0" type="line"/>
      <point x="83.0" y="-239.0" type="line"/>
      <point x="80.0" y="-250.0" type="line"/>
      <point x="249.0" y="-288.0"/>
      <point x="285.0" y="-325.0"/>
      <point x="285.0" y="-365.0" type="curve" smooth="yes"/>
      <point x="285.0" y="-410.0"/>
      <point x="252.0" y="-444.0"/>
      <point x="198.0" y="-444.0" type="curve" smooth="yes"/>
      <point x="122.0" y="-444.0"/>
      <point x="108.0" y="-369.0"/>
      <point x="54.0" y="-369.0" type="curve" smooth="yes"/>
      <point x="11.0" y="-369.0"/>
      <point x="-13.0" y="-401.0"/>
      <point x="-13.0" y="-435.0" type="curve" smooth="yes"/>
      <point x="-13.0" y="-488.0"/>
      <point x="44.0" y="-530.0"/>
    </contour>
  </outline>
</glyph>
<glyph name="Tbar" format="2">
  <advance width="1357"/>
  <unicode hex="0166"/>
  <outline>
    <contour>
      <point x="308.0" y="594.0" type="line"/>
      <point x="1138.0" y="594.0" type="line"/>
      <point x="1178.0" y="724.0" type="line"/>
      <point x="347.0" y="724.0" type="line"/>
    </contour>
    <contour>
      <point x="1384.0" y="1202.0" type="line"/>
      <point x="1334.0" y="1245.0" type="line"/>
      <point x="1413.0" y="916.0" type="line"/>
      <point x="1474.0" y="916.0" type="line"/>
      <point x="1577.0" y="1415.0" type="line"/>
      <point x="1532.0" y="1415.0" type="line"/>
      <point x="1329.0" y="1312.0" type="line"/>
      <point x="1455.0" y="1340.0" type="line"/>
      <point x="444.0" y="1340.0" type="line"/>
      <point x="551.0" y="1312.0" type="line"/>
      <point x="413.0" y="1415.0" type="line"/>
      <point x="370.0" y="1415.0" type="line"/>
      <point x="179.0" y="929.0" type="line"/>
      <point x="238.0" y="906.0" type="line"/>
      <point x="535.0" y="1241.0" type="line"/>
      <point x="379.0" y="1202.0" type="line"/>
    </contour>
    <contour>
      <point x="739.0" y="1243.0" type="line"/>
      <point x="390.0" y="103.0" type="line"/>
      <point x="242.0" y="44.0" type="line"/>
      <point x="229.0" y="0.0" type="line"/>
      <point x="862.0" y="0.0" type="line"/>
      <point x="875.0" y="44.0" type="line"/>
      <point x="758.0" y="97.0" type="line"/>
      <point x="1109.0" y="1243.0" type="line"/>
    </contour>
  </outline>
</glyph>
<glyph name="uni0308" format="2">
  <unicode hex="0308"/>
  <guideline x="132" y="871" angle="73" identifier="rmxRvwX1Dn"/>
  <anchor x="133" y="872.0" name="_top"/>
  <anchor x="250" y="1255" name="top"/>
  <outline>
    <contour>
      <point x="11.0" y="1033.0" type="curve" smooth="yes"/>
      <point x="96.0" y="1033.0"/>
      <point x="154.0" y="1096.0"/>
      <point x="154.0" y="1174.0" type="curve" smooth="yes"/>
      <point x="154.0" y="1254.0"/>
      <point x="96.0" y="1317.0"/>
      <point x="11.0" y="1317.0" type="curve" smooth="yes"/>
      <point x="-73.0" y="1317.0"/>
      <point x="-132.0" y="1254.0"/>
      <point x="-132.0" y="1174.0" type="curve" smooth="yes"/>
      <point x="-132.0" y="1096.0"/>
      <point x="-73.0" y="1033.0"/>
    </contour>
    <contour>
      <point x="439.0" y="1033.0" type="curve" smooth="yes"/>
      <point x="524.0" y="1033.0"/>
      <point x="582.0" y="1096.0"/>
      <point x="582.0" y="1174.0" type="curve" smooth="yes"/>
      <point x="582.0" y="1254.0"/>
      <point x="524.0" y="1317.0"/>
      <point x="439.0" y="1317.0" type="curve" smooth="yes"/>
      <point x="355.0" y="1317.0"/>
      <point x="296.0" y="1254.0"/>
      <point x="296.0" y="1174.0" type="curve" smooth="yes"/>
      <point x="296.0" y="1096.0"/>
      <point x="355.0" y="1033.0"/>
    </contour>
  </outline>
</glyph>
<glyph name="uni0312" format="2">
  <unicode hex="0312"/>
  <anchor x="133" y="872.0" name="_top"/>
  <anchor x="274" y="1340" name="top"/>
  <outline>
    <contour>
      <point x="301.0" y="998.0"/>
      <point x="368.0" y="1075.0"/>
      <point x="368.0" y="1146.0" type="curve" smooth="yes"/>
      <point x="368.0" y="1165.0"/>
      <point x="270.0" y="1173.0"/>
      <point x="270.0" y="1232.0" type="curve" smooth="yes"/>
      <point x="270.0" y="1266.0"/>
      <point x="295.0" y="1306.0"/>
      <point x="411.0" y="1327.0" type="curve"/>
      <point x="421.0" y="1396.0" type="line"/>
      <point x="146.0" y="1359.0"/>
      <point x="65.0" y="1253.0"/>
      <point x="65.0" y="1129.0" type="curve" smooth="yes"/>
      <point x="65.0" y="1046.0"/>
      <point x="108.0" y="998.0"/>
      <point x="196.0" y="998.0" type="curve" smooth="yes"/>
    </contour>
  </outline>
</glyph>
<glyph name="uni0331" format="2">
  <unicode hex="0331"/>
  <anchor x="-133" y="0" name="_bottom"/>
  <anchor x="-295" y="-530" name="bottom"/>
  <outline>
    <contour>
      <point x="-501.0" y="-323.0" type="line"/>
      <point x="35.0" y="-323.0" type="line"/>
      <point x="79.0" y="-177.0" type="line"/>
      <point x="-457.0" y="-177.0" type="line"/>
    </contour>
  </outline>
</glyph>
<glyph name="uni0335" format="2">
  <unicode hex="0335"/>
  <anchor x="196" y="1078" name="_center"/>
  <outline>
    <contour>
      <point x="-203.0" y="1014.0" type="line"/>
      <point x="557.0" y="1014.0" type="line"/>
      <point x="596.0" y="1144.0" type="line"/>
      <point x="-164.0" y="1144.0" type="line"/>
    </contour>
  </outline>
</glyph>
<glyph name="quoteleft" format="2">
  <advance width="511"/>
  <unicode hex="2018"/>
  <outline>
    <contour>
      <point x="692.0" y="1279.0" type="curve"/>
      <point x="658.0" y="1364.0" type="line"/>
      <point x="306.0" y="1230.0"/>
      <point x="213.0" y="1081.0"/>
      <point x="213.0" y="907.0" type="curve" smooth="yes"/>
      <point x="213.0" y="810.0"/>
      <point x="267.0" y="753.0"/>
      <point x="373.0" y="753.0" type="curve" smooth="yes"/>
      <point x="499.0" y="753.0"/>
      <point x="585.0" y="848.0"/>
      <point x="585.0" y="945.0" type="curve" smooth="yes"/>
      <point x="585.0" y="988.0"/>
      <point x="455.0" y="1012.0"/>
      <point x="455.0" y="1090.0" type="curve" smooth="yes"/>
      <point x="455.0" y="1142.0"/>
      <point x="509.0" y="1202.0"/>
    </contour>
  </outline>
</glyph>
<glyph name="quotesinglbase" format="2">
  <advance width="514"/>
  <unicode hex="201A"/>
  <outline>
    <contour>
      <point x="-104.0" y="-177.0" type="curve"/>
      <point x="-70.0" y="-262.0" type="line"/>
      <point x="282.0" y="-128.0"/>
      <point x="375.0" y="21.0"/>
      <point x="375.0" y="195.0" type="curve" smooth="yes"/>
      <point x="375.0" y="292.0"/>
      <point x="321.0" y="349.0"/>
      <point x="215.0" y="349.0" type="curve" smooth="yes"/>
      <point x="89.0" y="349.0"/>
      <point x="3.0" y="254.0"/>
      <point x="3.0" y="157.0" type="curve" smooth="yes"/>
      <point x="3.0" y="114.0"/>
      <point x="133.0" y="90.0"/>
      <point x="133.0" y="12.0" type="curve" smooth="yes"/>
      <point x="133.0" y="-40.0"/>
      <point x="79.0" y="-100.0"/>
    </contour>
  </outline>
</glyph>
<glyph name="daggerdbl" format="2">
  <advance width="694"/>
  <unicode hex="2021"/>
  <outline>
    <contour>
      <point x="578.0" y="1203.0" type="line"/>
      <point x="356.0" y="1252.0" type="line"/>
      <point x="300.0" y="1070.0" type="line"/>
      <point x="552.0" y="1121.0" type="line"/>
      <point x="775.0" y="1070.0" type="line"/>
      <point x="831.0" y="1252.0" type="line"/>
    </contour>
    <contour>
      <point x="602.0" y="1025.0" type="line"/>
      <point x="603.0" y="1161.0" type="line"/>
      <point x="744.0" y="1399.0" type="line"/>
      <point x="533.0" y="1399.0" type="line"/>
      <point x="524.0" y="1161.0" type="line"/>
      <point x="446.0" y="1025.0" type="line"/>
      <point x="441.0" y="889.0" type="line"/>
      <point x="304.0" y="651.0" type="line"/>
      <point x="515.0" y="651.0" type="line"/>
      <point x="520.0" y="889.0" type="line"/>
    </contour>
    <contour>
      <point x="469.0" y="847.0" type="line"/>
      <point x="692.0" y="798.0" type="line"/>
      <point x="748.0" y="980.0" type="line"/>
      <point x="494.0" y="929.0" type="line"/>
      <point x="273.0" y="980.0" type="line"/>
      <point x="217.0" y="798.0" type="line"/>
    </contour>
  </outline>
</glyph>
<glyph name="guilsinglleft" format="2">
  <advance width="569"/>
  <unicode hex="2039"/>
  <outline>
    <contour>
      <point x="309.0" y="467.0" type="line"/>
      <point x="273.0" y="349.0" type="line"/>
      <point x="630.0" y="820.0" type="line"/>
      <point x="574.0" y="872.0" type="line"/>
      <point x="59.0" y="484.0" type="line"/>
      <point x="30.0" y="388.0" type="line"/>
      <point x="318.0" y="0.0" type="line"/>
      <point x="388.0" y="34.0" type="line"/>
    </contour>
  </outline>
</glyph>
<glyph name="fi" format="2">
  <advance width="1317"/>
  <unicode hex="FB01"/>
  <outline>
    <contour>
      <point x="86.0" y="763.0" type="line"/>
      <point x="1010.0" y="763.0" type="line"/>
      <point x="935.0" y="779.0" type="line"/>
      <point x="704.0" y="113.0" type="line" smooth="yes"/>
      <point x="669.0" y="13.0"/>
      <point x="708.0" y="-30.0"/>
      <point x="816.0" y="-30.0" type="curve" smooth="yes"/>
      <point x="975.0" y="-30.0"/>
      <point x="1132.0" y="61.0"/>
      <point x="1288.0" y="261.0" type="curve"/>
      <point x="1244.0" y="304.0" type="line"/>
      <point x="1133.0" y="198.0"/>
      <point x="1061.0" y="154.0"/>
      <point x="946.0" y="157.0" type="curve"/>
      <point x="1031.0" y="73.0" type="line"/>
      <point x="1314.0" y="902.0" type="line"/>
      <point x="1264.0" y="902.0" type="line"/>
      <point x="1207.0" y="883.0"/>
      <point x="1110.0" y="872.0"/>
      <point x="1031.0" y="872.0" type="curve" smooth="yes"/>
      <point x="106.0" y="872.0" type="line"/>
    </contour>
    <contour>
      <point x="527" y="342" type="curve" smooth="yes"/>
      <point x="702" y="1074" type="line" smooth="yes"/>
      <point x="746" y="1256"/>
      <point x="788" y="1297"/>
      <point x="871" y="1297" type="curve" smooth="yes"/>
      <point x="928" y="1297.0"/>
      <point x="990" y="1259"/>
      <point x="1044" y="1193" type="curve" smooth="yes"/>
      <point x="1098.0" y="1127.0"/>
      <point x="1118" y="1114"/>
      <point x="1130" y="1114" type="curve" smooth="yes"/>
      <point x="1192" y="1114"/>
      <point x="1261" y="1169"/>
      <point x="1261" y="1253" type="curve" smooth="yes"/>
      <point x="1261" y="1349"/>
      <point x="1184" y="1429"/>
      <point x="1001" y="1429" type="curve" smooth="yes"/>
      <point x="694" y="1429"/>
      <point x="384" y="1210"/>
      <point x="290" y="768" type="curve" smooth="yes"/>
      <point x="76" y="-242" type="line" smooth="yes"/>
      <point x="48" y="-374"/>
      <point x="4" y="-412"/>
      <point x="-63" y="-412" type="curve" smooth="yes"/>
      <point x="-99" y="-412"/>
      <point x="-133" y="-392"/>
      <point x="-183" y="-323" type="curve" smooth="yes"/>
      <point x="-233" y="-254"/>
      <point x="-258" y="-231"/>
      <point x="-281" y="-231" type="curve" smooth="yes"/>
      <point x="-341" y="-231"/>
      <point x="-393" y="-279"/>
      <point x="-393" y="-357" type="curve" smooth="yes"/>
      <point x="-393" y="-456"/>
      <point x="-319" y="-530"/>
      <point x="-154" y="-530" type="curve" smooth="yes"/>
      <point x="124" y="-530"/>
      <point x="368" y="-325"/>
    </contour>
  </outline>
</glyph>
<glyph name="Euro.lf" format="2">
  <advance width="1381"/>
  <outline>
    <contour>
      <point x="1038.0" y="582.0" type="line"/>
      <point x="129.0" y="582.0" type="line"/>
      <point x="94.0" y="468.0" type="line"/>
      <point x="1003.0" y="468.0" type="line"/>
    </contour>
    <contour>
      <point x="1129.0" y="878.0" type="line"/>
      <point x="219.0" y="878.0" type="line"/>
      <point x="185.0" y="764.0" type="line"/>
      <point x="1094.0" y="764.0" type="line"/>
    </contour>
    <contour>
      <point x="1065.0" y="1242.0" type="curve" smooth="yes"/>
      <point x="1206.0" y="1242.0"/>
      <point x="1229.0" y="1063.0"/>
      <point x="1355.0" y="1063.0" type="curve" smooth="yes"/>
      <point x="1423.0" y="1063.0"/>
      <point x="1480.0" y="1109.0"/>
      <point x="1480.0" y="1187.0" type="curve" smooth="yes"/>
      <point x="1480.0" y="1289.0"/>
      <point x="1385.0" y="1370.0"/>
      <point x="1140.0" y="1370.0" type="curve" smooth="yes"/>
      <point x="614.0" y="1370.0"/>
      <point x="303.0" y="965.0"/>
      <point x="303.0" y="460.0" type="curve" smooth="yes"/>
      <point x="303.0" y="148.0"/>
      <point x="471.0" y="-30.0"/>
      <point x="789.0" y="-30.0" type="curve" smooth="yes"/>
      <point x="1136.0" y="-30.0"/>
      <point x="1237.0" y="91.0"/>
      <point x="1237.0" y="181.0" type="curve" smooth="yes"/>
      <point x="1237.0" y="240.0"/>
      <point x="1196.0" y="272.0"/>
      <point x="1130.0" y="272.0" type="curve" smooth="yes"/>
      <point x="994.0" y="272.0"/>
      <point x="932.0" y="84.0"/>
      <point x="785.0" y="84.0" type="curve" smooth="yes"/>
      <point x="702.0" y="84.0"/>
      <point x="649.0" y="130.0"/>
      <point x="649.0" y="295.0" type="curve" smooth="yes"/>
      <point x="649.0" y="688.0"/>
      <point x="810.0" y="1242.0"/>
    </contour>
  </outline>
</glyph>
<glyph name="cent.lf" format="2">
  <advance width="985"/>
  <outline>
    <contour>
      <point x="141.0" y="0.0" type="line"/>
      <point x="245.0" y="0.0" type="line"/>
      <point x="1086.0" y="1340.0" type="line"/>
      <point x="982.0" y="1340.0" type="line"/>
    </contour>
    <contour>
      <point x="684" y="1016" type="curve" smooth="yes"/>
      <point x="723.0" y="1016.0"/>
      <point x="759" y="987"/>
      <point x="799" y="919" type="curve" smooth="yes"/>
      <point x="839" y="851"/>
      <point x="853.0" y="835.0"/>
      <point x="868" y="835" type="curve" smooth="yes"/>
      <point x="960" y="835"/>
      <point x="1020" y="882"/>
      <point x="1020" y="959" type="curve" smooth="yes"/>
      <point x="1020" y="1053"/>
      <point x="942" y="1126"/>
      <point x="750" y="1126" type="curve" smooth="yes"/>
      <point x="444" y="1126"/>
      <point x="154" y="890"/>
      <point x="154" y="539" type="curve" smooth="yes"/>
      <point x="154" y="327"/>
      <point x="273" y="194"/>
      <point x="498" y="194" type="curve" smooth="yes"/>
      <point x="696" y="194"/>
      <point x="825" y="278"/>
      <point x="939" y="573" type="curve"/>
      <point x="873" y="573" type="line"/>
      <point x="797" y="447"/>
      <point x="729" y="407"/>
      <point x="641" y="407" type="curve" smooth="yes"/>
      <point x="536" y="407"/>
      <point x="493" y="458"/>
      <point x="493" y="589" type="curve" smooth="yes"/>
      <point x="493" y="830"/>
      <point x="590" y="1016"/>
    </contour>
  </outline>
</glyph>
<glyph name="colonmonetary.lf.1" format="2">
  <advance width="1180"/>
  <outline>
    <contour>
      <point x="908.0" y="1247.0" type="curve" smooth="yes"/>
      <point x="1068.0" y="1247.0"/>
      <point x="1073.0" y="1060.0"/>
      <point x="1211.0" y="1060.0" type="curve" smooth="yes"/>
      <point x="1277.0" y="1060.0"/>
      <point x="1335.0" y="1111.0"/>
      <point x="1335.0" y="1191.0" type="curve" smooth="yes"/>
      <point x="1335.0" y="1282.0"/>
      <point x="1255.0" y="1370.0"/>
      <point x="982.0" y="1370.0" type="curve" smooth="yes"/>
      <point x="434.0" y="1370.0"/>
      <point x="134.0" y="857.0"/>
      <point x="134.0" y="392.0" type="curve" smooth="yes"/>
      <point x="134.0" y="129.0"/>
      <point x="268.0" y="-30.0"/>
      <point x="526.0" y="-30.0" type="curve" smooth="yes"/>
      <point x="710.0" y="-30.0"/>
      <point x="883.0" y="40.0"/>
      <point x="1080.0" y="316.0" type="curve"/>
      <point x="1041.0" y="367.0" type="line"/>
      <point x="915.0" y="288.0"/>
      <point x="811.0" y="253.0"/>
      <point x="715.0" y="253.0" type="curve" smooth="yes"/>
      <point x="552.0" y="253.0"/>
      <point x="461.0" y="306.0"/>
      <point x="461.0" y="468.0" type="curve" smooth="yes"/>
      <point x="461.0" y="742.0"/>
      <point x="683.0" y="1247.0"/>
    </contour>
    <contour>
      <point x="969.0" y="1296.0" type="line"/>
      <point x="1092.0" y="1535.0" type="line"/>
      <point x="989.0" y="1535.0" type="line"/>
      <point x="866.0" y="1296.0" type="line"/>
    </contour>
    <contour>
      <point x="1174.0" y="1296.0" type="line"/>
      <point x="1297.0" y="1535.0" type="line"/>
      <point x="1195.0" y="1535.0" type="line"/>
      <point x="1072.0" y="1296.0" type="line"/>
    </contour>
    <contour>
      <point x="176.0" y="-195.0" type="line"/>
      <point x="279.0" y="-195.0" type="line"/>
      <point x="468.0" y="170.0" type="line"/>
      <point x="365.0" y="170.0" type="line"/>
    </contour>
    <contour>
      <point x="382.0" y="-195.0" type="line"/>
      <point x="484.0" y="-195.0" type="line"/>
      <point x="673.0" y="170.0" type="line"/>
      <point x="571.0" y="170.0" type="line"/>
    </contour>
  </outline>
</glyph>
<glyph name="colonmonetary.lf" format="2">
  <advance width="1180"/>
  <outline>
    <contour>
      <point x="342.0" y="-195.0" type="line"/>
      <point x="444.0" y="-195.0" type="line"/>
      <point x="1337.0" y="1535.0" type="line"/>
      <point x="1235.0" y="1535.0" type="line"/>
    </contour>
    <contour>
      <point x="136.0" y="-195.0" type="line"/>
      <point x="239.0" y="-195.0" type="line"/>
      <point x="1132.0" y="1535.0" type="line"/>
      <point x="1029.0" y="1535.0" type="line"/>
    </contour>
    <contour>
      <point x="908.0" y="1247.0" type="curve" smooth="yes"/>
      <point x="1068.0" y="1247.0"/>
      <point x="1073.0" y="1060.0"/>
      <point x="1211.0" y="1060.0" type="curve" smooth="yes"/>
      <point x="1277.0" y="1060.0"/>
      <point x="1335.0" y="1111.0"/>
      <point x="1335.0" y="1191.0" type="curve" smooth="yes"/>
      <point x="1335.0" y="1282.0"/>
      <point x="1255.0" y="1370.0"/>
      <point x="982.0" y="1370.0" type="curve" smooth="yes"/>
      <point x="434.0" y="1370.0"/>
      <point x="134.0" y="857.0"/>
      <point x="134.0" y="392.0" type="curve" smooth="yes"/>
      <point x="134.0" y="129.0"/>
      <point x="268.0" y="-30.0"/>
      <point x="526.0" y="-30.0" type="curve" smooth="yes"/>
      <point x="710.0" y="-30.0"/>
      <point x="883.0" y="40.0"/>
      <point x="1080.0" y="316.0" type="curve"/>
      <point x="1041.0" y="367.0" type="line"/>
      <point x="915.0" y="288.0"/>
      <point x="811.0" y="253.0"/>
      <point x="715.0" y="253.0" type="curve" smooth="yes"/>
      <point x="552.0" y="253.0"/>
      <point x="461.0" y="306.0"/>
      <point x="461.0" y="468.0" type="curve" smooth="yes"/>
      <point x="461.0" y="742.0"/>
      <point x="683.0" y="1247.0"/>
    </contour>
  </outline>
</glyph>
<glyph name="franc.lf" format="2">
  <advance width="1251"/>
  <outline>
    <contour>
      <point x="1420.0" y="1416.0" type="line"/>
      <point x="1268.0" y="1340.0" type="line"/>
      <point x="753.0" y="1340.0" type="line"/>
      <point x="715.0" y="1222.0" type="line"/>
      <point x="1263.0" y="1222.0" type="line"/>
      <point x="1219.0" y="1262.0" type="line"/>
      <point x="1292.0" y="935.0" type="line"/>
      <point x="1349.0" y="935.0" type="line"/>
      <point x="1447.0" y="1416.0" type="line"/>
    </contour>
    <contour>
      <point x="997.0" y="582.0" type="line"/>
      <point x="145.0" y="582.0" type="line"/>
      <point x="110.0" y="468.0" type="line"/>
      <point x="962.0" y="468.0" type="line"/>
    </contour>
    <contour>
      <point x="1087.0" y="878.0" type="line"/>
      <point x="235.0" y="878.0" type="line"/>
      <point x="200.0" y="764.0" type="line"/>
      <point x="1052.0" y="764.0" type="line"/>
    </contour>
    <contour>
      <point x="533.0" y="1238.0" type="line"/>
      <point x="186.0" y="101.0" type="line"/>
      <point x="-2.0" y="42.0" type="line"/>
      <point x="-14.0" y="0.0" type="line"/>
      <point x="685.0" y="0.0" type="line"/>
      <point x="697.0" y="42.0" type="line"/>
      <point x="547.0" y="101.0" type="line"/>
      <point x="925.0" y="1340.0" type="line"/>
      <point x="395.0" y="1340.0" type="line"/>
      <point x="383.0" y="1297.0" type="line"/>
    </contour>
  </outline>
</glyph>
<glyph name="lira.lf" format="2">
  <advance width="1256"/>
  <outline>
    <contour>
      <point x="423.0" y="314.0" type="line"/>
      <point x="361.0" y="245.0" type="line"/>
      <point x="660.0" y="423.0"/>
      <point x="717.0" y="580.0"/>
      <point x="717.0" y="668.0" type="curve" smooth="yes"/>
      <point x="717.0" y="757.0"/>
      <point x="706.0" y="803.0"/>
      <point x="706.0" y="903.0" type="curve" smooth="yes"/>
      <point x="706.0" y="1003.0"/>
      <point x="759.0" y="1118.0"/>
      <point x="942.0" y="1118.0" type="curve" smooth="yes"/>
      <point x="1067.0" y="1118.0"/>
      <point x="1139.0" y="1056.0"/>
      <point x="1165.0" y="899.0" type="curve"/>
      <point x="1258.0" y="910.0" type="line"/>
      <point x="1243.0" y="1195.0"/>
      <point x="1099.0" y="1370.0"/>
      <point x="829.0" y="1370.0" type="curve" smooth="yes"/>
      <point x="481.0" y="1370.0"/>
      <point x="318.0" y="1173.0"/>
      <point x="318.0" y="950.0" type="curve" smooth="yes"/>
      <point x="318.0" y="733.0"/>
      <point x="435.0" y="653.0"/>
      <point x="435.0" y="511.0" type="curve" smooth="yes"/>
      <point x="435.0" y="391.0"/>
      <point x="399.0" y="320.0"/>
      <point x="38.0" y="35.0" type="curve"/>
      <point x="30.0" y="0.0" type="line"/>
      <point x="838.0" y="0.0" type="line"/>
      <point x="931.0" y="-59.0" type="line"/>
      <point x="969.0" y="-59.0" type="line"/>
      <point x="1218.0" y="506.0" type="line"/>
      <point x="1156.0" y="506.0" type="line"/>
      <point x="744.0" y="180.0" type="line"/>
      <point x="1093.0" y="314.0" type="line"/>
    </contour>
    <contour>
      <point x="994.0" y="602.0" type="line"/>
      <point x="139.0" y="602.0" type="line"/>
      <point x="104.0" y="488.0" type="line"/>
      <point x="959.0" y="488.0" type="line"/>
    </contour>
    <contour>
      <point x="1067.0" y="898.0" type="line"/>
      <point x="213.0" y="898.0" type="line"/>
      <point x="178.0" y="784.0" type="line"/>
      <point x="1033.0" y="784.0" type="line"/>
    </contour>
  </outline>
</glyph>
<glyph name="seven.lf" format="2">
  <advance width="1057"/>
  <outline>
    <contour>
      <point x="258.0" y="1026.0" type="line"/>
      <point x="1049.0" y="1026.0" type="line"/>
      <point x="1155.0" y="1217.0" type="line"/>
      <point x="109.0" y="0.0" type="line"/>
      <point x="473.0" y="0.0" type="line"/>
      <point x="1297.0" y="1305.0" type="line"/>
      <point x="1308.0" y="1340.0" type="line"/>
      <point x="514.0" y="1340.0" type="line"/>
      <point x="423.0" y="1399.0" type="line"/>
      <point x="387.0" y="1399.0" type="line"/>
      <point x="140.0" y="824.0" type="line"/>
      <point x="206.0" y="824.0" type="line"/>
      <point x="609.0" y="1146.0" type="line"/>
    </contour>
  </outline>
</glyph>
<glyph name="three.lf" format="2">
  <advance width="1120"/>
  <outline>
    <contour>
      <point x="394.0" y="84.0" type="curve" smooth="yes"/>
      <point x="194.0" y="84.0"/>
      <point x="216.0" y="285.0"/>
      <point x="82.0" y="285.0" type="curve" smooth="yes"/>
      <point x="7.0" y="285.0"/>
      <point x="-27.0" y="238.0"/>
      <point x="-27.0" y="180.0" type="curve" smooth="yes"/>
      <point x="-27.0" y="74.0"/>
      <point x="94.0" y="-30.0"/>
      <point x="375.0" y="-30.0" type="curve" smooth="yes"/>
      <point x="818.0" y="-30.0"/>
      <point x="1053.0" y="212.0"/>
      <point x="1053.0" y="460.0" type="curve" smooth="yes"/>
      <point x="1053.0" y="636.0"/>
      <point x="928.0" y="768.0"/>
      <point x="712.0" y="766.0" type="curve"/>
      <point x="680.0" y="749.0" type="line"/>
      <point x="913.0" y="774.0"/>
      <point x="1103.0" y="883.0"/>
      <point x="1103.0" y="1084.0" type="curve" smooth="yes"/>
      <point x="1103.0" y="1254.0"/>
      <point x="981.0" y="1370.0"/>
      <point x="748.0" y="1370.0" type="curve" smooth="yes"/>
      <point x="494.0" y="1370.0"/>
      <point x="327.17414119679523" y="1206.5359930342918"/>
      <point x="250.0" y="969.0" type="curve"/>
      <point x="342.0" y="941.0" type="line"/>
      <point x="397.0" y="1084.0"/>
      <point x="477.0" y="1137.0"/>
      <point x="596.0" y="1137.0" type="curve" smooth="yes"/>
      <point x="692.0" y="1137.0"/>
      <point x="770.0" y="1079.0"/>
      <point x="770.0" y="977.0" type="curve" smooth="yes"/>
      <point x="770.0" y="853.0"/>
      <point x="700.0" y="779.0"/>
      <point x="424.0" y="715.0" type="curve"/>
      <point x="435.0" y="615.0" type="line"/>
      <point x="486.0" y="623.0" type="line" smooth="yes"/>
      <point x="621.0" y="642.0"/>
      <point x="682.0" y="565.0"/>
      <point x="682.0" y="461.0" type="curve" smooth="yes"/>
      <point x="682.0" y="260.408"/>
      <point x="567.0" y="84.0"/>
    </contour>
  </outline>
</glyph>
<glyph name="uni0302_gravecomb.case" format="2">
  <anchor x="276" y="1340.0" name="_UCtop"/>
  <outline>
    <contour>
      <point x="83.0" y="1626.0" type="line"/>
      <point x="31.0" y="1842.0" type="line"/>
      <point x="-209.0" y="1842.0" type="line"/>
      <point x="-219.0" y="1807.0" type="line"/>
      <point x="-9.0" y="1626.0" type="line"/>
    </contour>
    <contour>
      <point x="-7.0" y="1476.0" type="line"/>
      <point x="156.0" y="1476.0" type="line"/>
      <point x="400.0" y="1597.0" type="line"/>
      <point x="342.0" y="1597.0" type="line"/>
      <point x="512.0" y="1476.0" type="line"/>
      <point x="643.0" y="1476.0" type="line"/>
      <point x="517.0" y="1716.0" type="line"/>
      <point x="266.0" y="1716.0" type="line"/>
    </contour>
  </outline>
</glyph>
<glyph name="uni0302_gravecomb" format="2">
  <anchor x="133" y="872.0" name="_top"/>
  <outline>
    <contour>
      <point x="-37.0" y="1209.0" type="line"/>
      <point x="-63.0" y="1480.0" type="line"/>
      <point x="-319.0" y="1480.0" type="line"/>
      <point x="-329.0" y="1445.0" type="line"/>
      <point x="-125.0" y="1209.0" type="line"/>
    </contour>
    <contour>
      <point x="-140.0" y="1009.0" type="line"/>
      <point x="-12.0" y="1009.0" type="line"/>
      <point x="318.0" y="1221.0" type="line"/>
      <point x="196.0" y="1221.0" type="line"/>
      <point x="387.0" y="1009.0" type="line"/>
      <point x="491.0" y="1009.0" type="line"/>
      <point x="383.0" y="1340.0" type="line"/>
      <point x="170.0" y="1340.0" type="line"/>
    </contour>
  </outline>
</glyph>
<glyph name="uni0302_hookabovecomb.case" format="2">
  <anchor x="276" y="1340.0" name="_UCtop"/>
  <outline>
    <contour>
      <point x="659.0" y="1687.0" type="curve"/>
      <point x="652.0" y="1621.0" type="line"/>
      <point x="904.0" y="1649.0"/>
      <point x="956.0" y="1716.0"/>
      <point x="956.0" y="1799.0" type="curve" smooth="yes"/>
      <point x="956.0" y="1863.0"/>
      <point x="915.0" y="1924.0"/>
      <point x="663.0" y="1933.0" type="curve"/>
      <point x="625.0" y="1800.0" type="line"/>
      <point x="769.0" y="1794.0"/>
      <point x="788.0" y="1777.0"/>
      <point x="788.0" y="1752.0" type="curve" smooth="yes"/>
      <point x="788.0" y="1725.0"/>
      <point x="770.0" y="1705.0"/>
    </contour>
    <contour>
      <point x="-7.0" y="1476.0" type="line"/>
      <point x="156.0" y="1476.0" type="line"/>
      <point x="400.0" y="1597.0" type="line"/>
      <point x="342.0" y="1597.0" type="line"/>
      <point x="512.0" y="1476.0" type="line"/>
      <point x="643.0" y="1476.0" type="line"/>
      <point x="517.0" y="1716.0" type="line"/>
      <point x="266.0" y="1716.0" type="line"/>
    </contour>
  </outline>
</glyph>
<glyph name="uni0302_tildecomb" format="2">
  <anchor x="133" y="872.0" name="_top"/>
  <outline>
    <contour>
      <point x="276.0" y="1110.0" type="line"/>
      <point x="160.0" y="1110.0" type="line"/>
      <point x="334.0" y="967.0" type="line"/>
      <point x="441.0" y="967.0" type="line"/>
      <point x="325.0" y="1204.0" type="line"/>
      <point x="145.0" y="1204.0" type="line"/>
      <point x="-116.0" y="967.0" type="line"/>
      <point x="17.0" y="967.0" type="line"/>
    </contour>
    <contour>
      <point x="576.0" y="1476.0" type="curve"/>
      <point x="492.0" y="1476.0" type="line"/>
      <point x="462.0" y="1433.0"/>
      <point x="437.0" y="1416.0"/>
      <point x="393.0" y="1416.0" type="curve" smooth="yes"/>
      <point x="341.0" y="1416.0"/>
      <point x="287.0" y="1482.0"/>
      <point x="205.0" y="1482.0" type="curve" smooth="yes"/>
      <point x="132.0" y="1482.0"/>
      <point x="70.0" y="1437.0"/>
      <point x="-21.0" y="1275.0" type="curve"/>
      <point x="62.0" y="1275.0" type="line"/>
      <point x="92.0" y="1318.0"/>
      <point x="118.0" y="1335.0"/>
      <point x="161.0" y="1335.0" type="curve" smooth="yes"/>
      <point x="214.0" y="1335.0"/>
      <point x="267.0" y="1269.0"/>
      <point x="349.0" y="1269.0" type="curve" smooth="yes"/>
      <point x="422.0" y="1269.0"/>
      <point x="485.0" y="1314.0"/>
    </contour>
  </outline>
</glyph>
<glyph name="uni0304.case" format="2">
  <anchor x="276" y="1340.0" name="_UCtop"/>
  <anchor x="391" y="1716" name="UCtop"/>
  <outline>
    <contour>
      <point x="37.0" y="1522.0" type="line"/>
      <point x="627.0" y="1522.0" type="line"/>
      <point x="673.0" y="1671.0" type="line"/>
      <point x="82.0" y="1671.0" type="line"/>
    </contour>
  </outline>
</glyph>
<glyph name="uni0306_gravecomb" format="2">
  <anchor x="133" y="872.0" name="_top"/>
  <outline>
    <contour>
      <point x="251.0" y="1189.0" type="line"/>
      <point x="245.0" y="1476.0" type="line"/>
      <point x="10.0" y="1476.0" type="line"/>
      <point x="0.0" y="1443.0" type="line"/>
      <point x="175.0" y="1189.0" type="line"/>
    </contour>
    <contour>
      <point x="194.0" y="1109.0" type="curve" smooth="yes"/>
      <point x="80.0" y="1109.0"/>
      <point x="41.0" y="1133.0"/>
      <point x="37.0" y="1210.0" type="curve"/>
      <point x="-28.0" y="1210.0" type="line"/>
      <point x="-43.0" y="1003.0"/>
      <point x="22.0" y="957.0"/>
      <point x="159.0" y="957.0" type="curve" smooth="yes"/>
      <point x="296.0" y="957.0"/>
      <point x="390.0" y="1003.0"/>
      <point x="502.0" y="1210.0" type="curve"/>
      <point x="413.0" y="1210.0" type="line"/>
      <point x="363.0" y="1136.0"/>
      <point x="308.0" y="1109.0"/>
    </contour>
  </outline>
</glyph>
<glyph name="uni0308.case" format="2">
  <anchor x="276" y="1340.0" name="_UCtop"/>
  <anchor x="379" y="1677" name="UCtop"/>
  <outline>
    <contour>
      <point x="123.0" y="1454.0" type="curve" smooth="yes"/>
      <point x="208.0" y="1454.0"/>
      <point x="266.0" y="1517.0"/>
      <point x="266.0" y="1595.0" type="curve" smooth="yes"/>
      <point x="266.0" y="1675.0"/>
      <point x="208.0" y="1738.0"/>
      <point x="123.0" y="1738.0" type="curve" smooth="yes"/>
      <point x="39.0" y="1738.0"/>
      <point x="-20.0" y="1675.0"/>
      <point x="-20.0" y="1595.0" type="curve" smooth="yes"/>
      <point x="-20.0" y="1517.0"/>
      <point x="39.0" y="1454.0"/>
    </contour>
    <contour>
      <point x="585.0" y="1454.0" type="curve" smooth="yes"/>
      <point x="670.0" y="1454.0"/>
      <point x="728.0" y="1517.0"/>
      <point x="728.0" y="1595.0" type="curve" smooth="yes"/>
      <point x="728.0" y="1675.0"/>
      <point x="670.0" y="1738.0"/>
      <point x="585.0" y="1738.0" type="curve" smooth="yes"/>
      <point x="501.0" y="1738.0"/>
      <point x="442.0" y="1675.0"/>
      <point x="442.0" y="1595.0" type="curve" smooth="yes"/>
      <point x="442.0" y="1517.0"/>
      <point x="501.0" y="1454.0"/>
    </contour>
  </outline>
</glyph>
<glyph name="uni030B.case" format="2">
  <anchor x="276" y="1340.0" name="_UCtop"/>
  <anchor x="391" y="1716" name="UCtop"/>
  <outline>
    <contour>
      <point x="374.0" y="1476.0" type="line"/>
      <point x="477.0" y="1476.0" type="line"/>
      <point x="833.0" y="1674.0" type="line"/>
      <point x="846.0" y="1716.0" type="line"/>
      <point x="578.0" y="1716.0" type="line"/>
    </contour>
    <contour>
      <point x="116.0" y="1476.0" type="line"/>
      <point x="202.0" y="1476.0" type="line"/>
      <point x="451.0" y="1683.0" type="line"/>
      <point x="461.0" y="1716.0" type="line"/>
      <point x="211.0" y="1716.0" type="line"/>
    </contour>
  </outline>
</glyph>
<glyph name="uni030F.case" format="2">
  <anchor x="276" y="1340.0" name="_UCtop"/>
  <anchor x="391" y="1716" name="UCtop"/>
  <outline>
    <contour>
      <point x="262.0" y="1476.0" type="line"/>
      <point x="194.0" y="1716.0" type="line"/>
      <point x="-55.0" y="1716.0" type="line"/>
      <point x="-68.0" y="1674.0" type="line"/>
      <point x="174.0" y="1476.0" type="line"/>
    </contour>
    <contour>
      <point x="525.0" y="1476.0" type="line"/>
      <point x="563.0" y="1716.0" type="line"/>
      <point x="311.0" y="1716.0" type="line"/>
      <point x="301.0" y="1683.0" type="line"/>
      <point x="434.0" y="1476.0" type="line"/>
    </contour>
  </outline>
</glyph>
<glyph name="uni20A9.1" format="2">
  <advance width="1300"/>
  <outline>
    <contour>
      <point x="794.0" y="833.0" type="line"/>
      <point x="758.0" y="833.0" type="line"/>
      <point x="739.0" y="0.0" type="line"/>
      <point x="965.0" y="0.0" type="line"/>
      <point x="1466.0" y="1263.0" type="line"/>
      <point x="1573.0" y="1293.0" type="line"/>
      <point x="1588.0" y="1340.0" type="line"/>
      <point x="1269.0" y="1340.0" type="line"/>
      <point x="1255.0" y="1293.0" type="line"/>
      <point x="1356.0" y="1266.0" type="line"/>
      <point x="1038.0" y="449.0" type="line"/>
      <point x="1061.0" y="449.0" type="line"/>
      <point x="1084.0" y="1340.0" type="line"/>
      <point x="980.0" y="1340.0" type="line"/>
      <point x="349.0" y="245.0" type="line"/>
      <point x="468.0" y="370.0" type="line"/>
      <point x="655.0" y="1261.0" type="line"/>
      <point x="766.0" y="1293.0" type="line"/>
      <point x="781.0" y="1340.0" type="line"/>
      <point x="254.0" y="1340.0" type="line"/>
      <point x="239.0" y="1293.0" type="line"/>
      <point x="325.0" y="1259.0" type="line"/>
      <point x="79.0" y="0.0" type="line"/>
      <point x="309.0" y="0.0" type="line"/>
    </contour>
    <contour>
      <point x="1115.0" y="488.0" type="line"/>
      <point x="1330.0" y="488.0" type="line"/>
      <point x="1365.0" y="602.0" type="line"/>
      <point x="1159.0" y="602.0" type="line"/>
    </contour>
    <contour>
      <point x="358.0" y="602.0" type="line"/>
      <point x="43.0" y="602.0" type="line"/>
      <point x="9.0" y="488.0" type="line"/>
      <point x="349.0" y="488.0" type="line"/>
    </contour>
    <contour>
      <point x="1229.0" y="784.0" type="line"/>
      <point x="1421.0" y="784.0" type="line"/>
      <point x="1455.0" y="898.0" type="line"/>
      <point x="1273.0" y="898.0" type="line"/>
    </contour>
    <contour>
      <point x="382.0" y="898.0" type="line"/>
      <point x="134.0" y="898.0" type="line"/>
      <point x="99.0" y="784.0" type="line"/>
      <point x="373.0" y="784.0" type="line"/>
    </contour>
  </outline>
</glyph>
<glyph name="uni20AD.lf" format="2">
  <advance width="1484"/>
  <outline>
    <contour>
      <point x="1049.0" y="766.0" type="line"/>
      <point x="988.0" y="641.0" type="line"/>
      <point x="1502.0" y="1256.0" type="line"/>
      <point x="1654.0" y="1303.0" type="line"/>
      <point x="1666.0" y="1340.0" type="line"/>
      <point x="1268.0" y="1340.0" type="line"/>
      <point x="1256.0" y="1303.0" type="line"/>
      <point x="1387.0" y="1257.0" type="line"/>
      <point x="929.0" y="723.0" type="line"/>
      <point x="718.0" y="723.0" type="line"/>
      <point x="869.0" y="0.0" type="line"/>
      <point x="1302.0" y="0.0" type="line"/>
      <point x="1315.0" y="43.0" type="line"/>
      <point x="1200.0" y="92.0" type="line"/>
    </contour>
    <contour>
      <point x="1336.0" y="772.0" type="line"/>
      <point x="205.0" y="772.0" type="line"/>
      <point x="170.0" y="658.0" type="line"/>
      <point x="1301.0" y="658.0" type="line"/>
    </contour>
    <contour>
      <point x="877.0" y="1239.0" type="line"/>
      <point x="1065.0" y="1298.0" type="line"/>
      <point x="1077.0" y="1340.0" type="line"/>
      <point x="378.0" y="1340.0" type="line"/>
      <point x="366.0" y="1297.0" type="line"/>
      <point x="516.0" y="1238.0" type="line"/>
      <point x="169.0" y="101.0" type="line"/>
      <point x="-19.0" y="42.0" type="line"/>
      <point x="-31.0" y="0.0" type="line"/>
      <point x="668.0" y="0.0" type="line"/>
      <point x="680.0" y="42.0" type="line"/>
      <point x="530.0" y="101.0" type="line"/>
    </contour>
  </outline>
</glyph>
<glyph name="uni20B2.lf" format="2">
  <advance width="1269"/>
  <outline>
    <contour>
      <point x="404.0" y="-195.0" type="line"/>
      <point x="507.0" y="-195.0" type="line"/>
      <point x="1036.0" y="1535.0" type="line"/>
      <point x="932.0" y="1535.0" type="line"/>
    </contour>
    <contour>
      <point x="458.0" y="371.0" type="curve" smooth="yes"/>
      <point x="458.0" y="760.0"/>
      <point x="681.0" y="1247.0"/>
      <point x="908.0" y="1247.0" type="curve" smooth="yes"/>
      <point x="1068.0" y="1247.0"/>
      <point x="1073.0" y="1060.0"/>
      <point x="1211.0" y="1060.0" type="curve" smooth="yes"/>
      <point x="1277.0" y="1060.0"/>
      <point x="1335.0" y="1111.0"/>
      <point x="1335.0" y="1191.0" type="curve" smooth="yes"/>
      <point x="1335.0" y="1282.0"/>
      <point x="1255.0" y="1370.0"/>
      <point x="982.0" y="1370.0" type="curve" smooth="yes"/>
      <point x="434.0" y="1370.0"/>
      <point x="134.0" y="857.0"/>
      <point x="134.0" y="392.0" type="curve" smooth="yes"/>
      <point x="134.0" y="136.0"/>
      <point x="282.0" y="-30.0"/>
      <point x="573.0" y="-30.0" type="curve" smooth="yes"/>
      <point x="769.0" y="-30.0"/>
      <point x="921.0" y="1.0"/>
      <point x="1036.0" y="51.0" type="curve"/>
      <point x="1038.0" y="56.0" type="line"/>
      <point x="1059.0" y="175.0" type="line"/>
      <point x="1191.0" y="605.0" type="line"/>
      <point x="1262.0" y="656.0" type="line"/>
      <point x="1275.0" y="700.0" type="line"/>
      <point x="710.0" y="700.0" type="line"/>
      <point x="696.0" y="656.0" type="line"/>
      <point x="847.0" y="595.0" type="line"/>
      <point x="683.0" y="60.0" type="line"/>
      <point x="780.0" y="114.0" type="line"/>
      <point x="733.0" y="97.0"/>
      <point x="691.0" y="89.0"/>
      <point x="646.0" y="89.0" type="curve" smooth="yes"/>
      <point x="526.0" y="89.0"/>
      <point x="458.0" y="165.0"/>
    </contour>
  </outline>
</glyph>
<glyph name="uni20BC.lf" format="2">
  <advance width="1280"/>
  <outline>
    <contour>
      <point x="811.0" y="1025.0" type="curve" smooth="yes"/>
      <point x="1014.0" y="1025.0"/>
      <point x="944.0" y="821.0"/>
      <point x="726.0" y="0.0" type="curve"/>
      <point x="1070.0" y="0.0" type="line"/>
      <point x="1221.0" y="894.0"/>
      <point x="1119.0" y="1140.0"/>
      <point x="843.0" y="1140.0" type="curve" smooth="yes"/>
      <point x="559.0" y="1140.0"/>
      <point x="301.0" y="894.0"/>
      <point x="-47.0" y="0.0" type="curve"/>
      <point x="298.0" y="0.0" type="line"/>
      <point x="602.0" y="885.0"/>
      <point x="637.0" y="1025.0"/>
    </contour>
    <contour>
      <point x="460.0" y="0.0" type="line"/>
      <point x="563.0" y="0.0" type="line"/>
      <point x="973.0" y="1340.0" type="line"/>
      <point x="870.0" y="1340.0" type="line"/>
    </contour>
  </outline>
</glyph>
